<?xml version="1.0" encoding="UTF-8"?>
<svg version="1.1" viewBox="0 0 2048 460" width="1280" height="1280" xmlns="http://www.w3.org/2000/svg">
<path transform="translate(813,48)" d="m0 0h179l1 1v79l-9 2-23 3-4 1v138l2 20 4 11 5 6 12 5 6 1h26l12-3 8-5 6-9 2-9 1-156-26-3-7-1-2-3v-75l1-2 11-1h164l1 1v79l-9 2-24 3h-4v56l-1 106-3 20-4 15-8 18-8 13-9 11-9 9-14 10-15 8-16 6-25 6-26 3h-29l-24-3-19-4-19-7-17-9-14-11-9-9-10-14-8-15-7-21-3-15-2-22-1-151-31-3-3-3v-78z" fill="#F8C26A"/>
<path transform="translate(72,47)" d="m0 0h333l2 1v119l-1 1h-86l-6-18-3-11-4-1h-14l-1 191h13l42 3 3 2v77l-1 1-216 1-2-2v-78l1-1 28-2 25-1v-191h-19l-2 10-5 19-1 1h-86l-1-1v-119z" fill="#F8C26A"/>
<path transform="translate(545,21)" d="m0 0 10 2 18 7 16 8 11 6 16 11 11 9 12 11 7 7 4-2 13-11 11-9 13-12 4-1 35 1 1 1v81l-1 8-8 11-11 12-13 10 2 11 4 24v49l-4 25-1 10 15 14 9 9 7 11 1 3v83l-1 1h-41l-8-8-11-9-14-12-6-4-19 19-14 11-15 10-19 11-24 10-7 3-4-1-6-9-13-24-1-4 15-12 7-8 10-10 13-17 12-18 3-7-21-14-22-13-22-12-30-15-31-13-33-11-19-5-1-1v-35l3-2 23-6 21-7 27-11 24-11 24-12 24-14 20-12 13-9-6-12-11-16-10-13-12-14-7-7-11-9-3-3 2-5 11-18zm66 200-10 6-5 2 2 4 13 8h2l1-2v-18z" fill="#F8C26A"/>
<path transform="translate(841,76)" d="m0 0h124l1 8v19l-4 2-30 4-3 1v164l3 23 5 15 6 11 5 6 10 6 13 5 17 3h22l17-3 14-5 10-7 7-8 6-13 3-12 2-23v-162l-7-2-28-4v-27l1-1h119v28l-11 2-25 3v169l-2 26-4 17-5 12-7 12-9 10-7 7-14 9-12 6-16 5-17 3-10 1h-43l-24-4-17-5-16-8-10-8-8-8-11-18-7-19-3-17-1-11-1-179-20-3-13-2-1-1v-26z" fill="#02598E"/>
<path transform="translate(560,52)" d="m0 0 10 4 24 14 13 11 8 7 12 12 11 14 4 6 16-13 20-16 13-11 9-7h1v56l-4 6-14 12-16 13-3 2 1 5 3 10 4 19 2 16v40l-3 20-5 19-2 4-1 6 5 2 17 13 16 16v56l-5-2-13-12-11-9-16-13-12-9-3-1-2 4-9 11-11 12-10 10-14 11-18 11-13 7-4-1 7-8 8-7 11-13 12-17 10-18 9-17 1-5-5-2-33-22-20-12-21-12-27-14-29-13-27-10-17-6-1-2 25-7 26-10 24-11 24-12 24-14 21-13 15-10 20-13-1-6-11-22-13-21-9-12-9-10-14-14zm51 169-10 6-5 2 2 4 13 8h2l1-2v-18z" fill="#02598E"/>
<path transform="translate(97,73)" d="m0 0h283l1 71-1 1h-39l-3-6-6-26h-65v240l23 1 27 2 6 1v29l-3 1h-139l-24-1v-29l47-4 7-1-1-239h-64l-8 30-2 2h-39z" fill="#02598E"/>
<path transform="translate(813,48)" d="m0 0h179l1 1v79l-9 2-23 3-4 1v138l2 20 4 11 5 6 12 5 6 1h26l12-3 8-5 6-9 2-9 1-156-26-3-7-1-2-3v-75l1-2 11-1h164l1 1v79l-9 2-24 3h-4v56l-1 106-3 20-4 15-8 18-8 13-9 11-9 9-14 10-15 8-16 6-25 6-26 3h-29l-24-3-19-4-19-7-17-9-14-11-9-9-10-14-8-15-7-21-3-15-2-22-1-151-31-3-3-3v-78zm29 10-20 1v54l1 7 3 1 31 3v164l3 23 5 19 7 16 8 12 8 10 7 7 11 8 17 9 18 6 26 5 8 1h37l17-2 23-5 21-8 16-9 10-8 12-12 9-14 8-18 5-19 2-12 1-14v-159l37-4v-61l-1-1h-149l-7 1v51l1 10 31 4h3l-1 166-3 14-5 8-7 6-8 4-13 3-9 1h-12l-19-3-12-6-7-8-4-9-3-17-1-27v-131l20-3 16-2v-62z" fill="#02598E"/>
<path transform="translate(72,47)" d="m0 0h333l2 1v119l-1 1h-86l-6-18-3-11-4-1h-14l-1 191h13l42 3 3 2v77l-1 1-216 1-2-2v-78l1-1 28-2 25-1v-191h-19l-2 10-5 19-1 1h-86l-1-1v-119zm9 10v101l1 1h64l6-1 6-30h37v209l-14 2-40 2v62h199v-53l-1-8-1-1-49-3-5-1-1-202 1-6 36-1 2 10 5 19 2 2h66l2-1v-68l-1-33z" fill="#035A8E"/>
<path transform="translate(545,21)" d="m0 0 10 2 18 7 16 8 11 6 16 11 11 9 12 11 7 7 4-2 13-11 11-9 13-12 4-1 35 1 1 1v81l-1 8-8 11-11 12-13 10 2 11 4 24v49l-4 25-1 10 15 14 9 9 7 11 1 3v83l-1 1h-41l-8-8-11-9-14-12-6-4-19 19-14 11-15 10-19 11-24 10-7 3-4-1-6-9-13-24-1-4 15-12 7-8 10-10 13-17 12-18 3-7-21-14-22-13-22-12-30-15-31-13-33-11-19-5-1-1v-35l3-2 23-6 21-7 27-11 24-11 24-12 24-14 20-12 13-9-6-12-11-16-10-13-12-14-7-7-11-9-3-3 2-5 11-18zm4 11-12 17-1 4 16 15 9 9 11 14 15 22 8 13 2 4v3l-17 11-28 17-27 15-24 12-30 13-30 11-27 8v21l36 11 28 11 24 11 36 18 27 16 19 12 11 7h2l-1 5-7 13-10 15-10 13-12 14-8 9-11 9-2 4 12 20 4 1 10-4 16-8 16-9 17-12 13-11 8-7 7-7 5-6 5 1 14 12 11 9 11 10 7 4h25v-75l-6-9-7-8-14-11-5-5-1-5 5-24 3-23v-21l-3-24-5-25v-5l14-11 13-13 5-7 1-4v-74l-1-1h-21l-8 5-13 11-11 9-14 12-5 1-11-13-13-12-13-10-19-12-19-10-15-6z" fill="#03598E"/>
<path transform="translate(630,184)" d="m0 0h3l2 12 1 14v40l-2 21-2 6-6-2-27-15-16-9-23-12-14-7v-2l23-12 26-14 21-12zm-19 37-10 6-5 2 2 4 13 8h2l1-2v-18z" fill="#F8C26B"/>
<path transform="translate(1556,149)" d="m0 0h23l5 10 13 30 3 6 2-2 13-29 7-14 1-1h20l1 5-6 2h-2v61h8l1 5-1 1h-28l-2-1 1-4 9-1v-47l-13 27-6 9-1 1h-9l-4-4-8-16-8-18-1 48h8l3 1 1 3-2 2h-28l-1-4 7-3 1-60-6-1-3-5z" fill="#035A8E"/>
<path transform="translate(1342,254)" d="m0 0h12l5 3 12 20 8 12 13 20 1-48-8-1-1-5h28l-1 5-7 2-1 66h-13l-6-7-13-21-11-17-7-10v-2h-2l1 2v48l9 3-1 4h-25l-2-1 1-4 7-1v-62h-5l-2-2v-3z" fill="#035A8E"/>
<path transform="translate(1930,149)" d="m0 0h21l6 9 14 24 10 17 3 5 1-48-6-1-1-1v-5h24l2 1-1 5-8 1v66l-1 1h-11l-4-4-17-29-12-20-2-3v49l7 2 1 4-1 1h-25l-1-3 1-2 6-1v-61l-5-1-2-5z" fill="#03598E"/>
<path transform="translate(1652,254)" d="m0 0h36l9 3 6 7 2 7v9l-4 8-7 6h-2l6 12 6 14 8 3 1 4-2 1h-27v-5l5-2-3-10-4-11-1-1-12-1 1 22 7 3 1 4-1 1h-26l-2-1 1-4 7-1v-62l-5 1-2-1v-5zm20 8-3 3v24h14l6-4 4-6-1-9-3-5-4-2z" fill="#075C90"/>
<path transform="translate(1871,149)" d="m0 0h16l9 2 9 6 6 8 4 10v20l-3 10-4 6-5 5-8 5-9 2h-16l-9-2-8-6-6-8-3-7-1-5v-18l4-12 9-10 10-5zm1 10-8 4-6 7-3 9v17l5 10 6 5 4 2 12 1 10-3 6-5 4-9 1-4v-14l-3-10-5-6-8-4z" fill="#035A8E"/>
<path transform="translate(1498,149)" d="m0 0h16l12 3 10 9 5 10 2 12-1 13-4 11-6 8-10 6-9 2h-16l-10-3-8-6-6-9-3-12v-12l3-12 5-9 8-7 7-3zm1 10-8 4-5 6-4 11v14l4 10 4 5 8 4 10 1 9-2 8-6 4-8 1-4v-16l-3-9-6-7-7-3z" fill="#02598E"/>
<path transform="translate(1268,149)" d="m0 0h14l3 4 18 53 4 8 6 6-1 3h-27v-6h7l-3-13-1-2h-29l-3 15h5l2 5-1 1h-25v-4l6-5 11-30 10-29zm5 12-4 9-7 20v3h22l-1-6-8-25z" fill="#03598E"/>
<path transform="translate(1320,149)" d="m0 0h24l2 1-1 4-9 2 1 43 2 8 4 4 2 1h16l6-4 2-6v-45l-8-4v-3l3-1h25l1 1v5h-8l-1 49-3 8-6 7-7 3-7 1h-13l-9-2-8-7-3-8-1-7-1-43-7-2v-4z" fill="#03598E"/>
<path transform="translate(1684,149)" d="m0 0h14l13 37 9 26v3l6 2 2 2v4h-28l-2-1 1-4 7-2-3-13-1-1-27-1-1 8-2 8h6l2 5-2 1h-25l1-4 5-4 6-16 15-43zm4 13-10 27v4h21l-1-7-7-23z" fill="#035A8E"/>
<path transform="translate(1247,254)" d="m0 0h10l13 1v4l-8 2v38l2 13 4 4 7 2 10-1 5-4 2-4 1-48-7-2v-4h28l-1 4-7 2-1 2v39l-2 12-6 9-8 4-4 1h-15l-10-3-6-5-4-10v-49l-8-1-1-4z" fill="#095E91"/>
<path transform="translate(1322,44)" d="m0 0h50v19l-4 1-4-4-2-6-2-1-19-1v26l27 1 1 5-1 3-27 1-1 21h26l2-8h8l1 2v14l-1 1h-54l-2-3 2-3 5-1 1-3v-58h-6l-1-5z" fill="#095E91"/>
<path transform="translate(1572,254)" d="m0 0h50v19l-1 2-5-2-3-5-1-4-5-1h-15l-1 2-1 24h28v8l-27 1v21h25l2-7 1-1h6l2 2v15h-56l-1-3 1-2 7-1v-62h-6l-1-5z" fill="#03598E"/>
<path transform="translate(1480,254)" d="m0 0h28v5l-4 2h-4l13 42 4 12 1 1 14-47 1-8-5-2-2-4 9-1h17l-1 6-5 4-8 25-11 35-2 4h-15l-3-4-18-54-4-8-5-5z" fill="#045A8F"/>
<path transform="translate(1750,254)" d="m0 0h10l14 2 2 2v16l-1 1h-5l-3-3-3-7-2-1h-14l-6 4v8l5 5 22 8 8 7 2 4v12l-4 8-6 5-6 2-7 1h-14l-13-2-1-2v-15l3-3 5 3 5 8 6 2h9l8-4 2-3v-7l-4-5-21-7-8-5-3-4-1-3v-11l4-8 6-5 5-2z" fill="#035A8E"/>
<path transform="translate(1412,44)" d="m0 0 21 1 4 1 1 2v17l-7-1-5-9-5-2h-9l-6 3-3 3v6l1 4 15 6 9 4 6 4 4 7v13l-6 10-9 4h-27l-5-2-1-2v-13l1-3h6l5 9 3 2h14l5-4 1-2v-8l-5-5-19-7-6-4-4-5-1-3v-9l3-8 5-5 6-3z" fill="#045A8E"/>
<path transform="translate(1930,254)" d="m0 0h27l-1 5-6 1 4 10 8 17h2l12-23v-3l-5-3v-4h24l-1 5-6 7-13 23-5 12-1 21h11l2 2v3l-2 1h-34l-2-1v-4l5-1h7v-19l-4-10-10-19-8-12-4-4z" fill="#045A8F"/>
<path transform="translate(1400,149)" d="m0 0h64v18l-3 2-5-3-6-8h-12l-1 59h9l4 1 1 4-2 1h-34l-3-2 1-4 11-1v-58h-12l-3 3-2 6-6 1-2-2v-16z" fill="#02598E"/>
<path transform="translate(1851,254)" d="m0 0h65v17l-2 3-5-2-3-8-3-1h-14v59h13l1 5-1 1h-35l-3-2 1-4 11-1 1-58h-16l-2 9-7 1-1-1z" fill="#02598E"/>
<path transform="translate(1725,149)" d="m0 0h64v16l-4 4-4-3-2-8h-15l-1 59h12l1 5-2 1h-34l-2-2v-3l2-1h10v-60l-14 1-2 6-4 4-4-1-1-7z" fill="#045A8F"/>
<path transform="translate(1246,44)" d="m0 0h65v17l-2 2-5-1-4-4-2-4-2-1-12-1v60h10l3 2v3l-4 1h-31l-3-1v-5h12v-59l-15-1-2 9-4 2-4-1-1-5v-12z" fill="#095D91"/>
<path transform="translate(1450,44)" d="m0 0h63v10l-1 8-3 2-5-5-1-6h-16v59h12l1 5-3 1h-31l-5-2 1-4 11-1 1-59-14 1-2 5-5 5h-3l-1-11v-7z" fill="#035A8E"/>
<path transform="translate(621,202)" d="m0 0h2l1 11v37l-1 9-2 1-20-12-22-12-7-5 5-4 26-14zm-10 19-10 6-5 2 2 4 13 8h2l1-2v-18z" fill="#02598E"/>
<path transform="translate(1800,149)" d="m0 0h29l1 4-3 2-7 1v61h8l2 2-1 4h-29l-2-4 1-2h8v-61l-7-1-1-5z" fill="#055B8F"/>
<path transform="translate(1751,372)" d="m0 0 8 1 3 1 3-2h11l6 4 3 6 1 6v9l-3 6-7 6h-8l-9-3v16l-2 1h-6l-2-2v-48zm15 9-5 3-2 2v7l3 5 3 2 7-1 3-4v-9l-5-5z" fill="#045A8F"/>
<path transform="translate(1803,254)" d="m0 0h29l1 1v5l-9 1-1 61h9l1 5-1 1h-29l-1-4 3-2 5-1 1-60-8-1-1-5z" fill="#035A8E"/>
<path transform="translate(1444,254)" d="m0 0h16l1 5-1 1-7 1-1 2v58l9 2 1 4-1 1h-29l-2-1v-4l9-1v-61l-9-2v-4z" fill="#045A8F"/>
<path transform="translate(1790,372)" d="m0 0 7 1 1 3 6-3 1-1h10l6 4 3 5v18l-4 6-3 3-9 1-10-3v15l-2 2h-6l-2-4v-45zm14 9-6 3v11l5 5h6l4-4 1-2v-7l-3-5z" fill="#055A8F"/>
<path transform="translate(1243,359)" d="m0 0h19l13 2 5 5 2 5v7l-3 8-4 3-5 1h-16v16l-1 1h-8l-2-3zm12 9-2 5 1 7 1 1h14l3-3v-7l-2-2-4-1z" fill="#045A8F"/>
<path transform="translate(1326,372)" d="m0 0 8 1 3 8 2 10h2l7-18 6-1 3 3 5 17 2-3 5-15 3-2h5l1 4-7 25-4 6h-6l-3-2-4-13-1-5-2 3-5 14-4 3h-5l-4-5-7-24-1-5z" fill="#045A8E"/>
<path transform="translate(1721,372)" d="m0 0h15l6 3 3 8 1 21-1 4-14 1h-13l-6-5-1-2v-9l4-6 2-2h10l7 1-2-4h-9l-5 2-4-1-1-5 4-4zm6 21-3 2v5l1 1h7l2-2-1-5z" fill="#055B8F"/>
<path transform="translate(1516,360)" d="m0 0h9l1 1v45l-7 1-7-1h-12l-6-5-3-8 1-10 4-7 5-3h8l7 2zm-12 21-4 7 1 6 3 4 7 1 5-4v-11l-4-3z" fill="#045A8E"/>
<path transform="translate(1557,359)" d="m0 0 8 1v16l6-3h10l5 3 4 5 1 3v12l-4 6-3 3-3 1h-11l-4-1-2 2h-7l-1-1v-46zm11 22-3 3v11l2 3 9 1 4-2 2-4-1-8-3-4z" fill="#03598E"/>
<path transform="translate(1893,371)" d="m0 0 10 1 7 4 4 8v13l-2 5-7 6-6 2h-7l-8-3-6-9-1-3v-9l4-9 5-4zm-1 10-4 4-1 7 3 7 2 1h7l5-5 1-7-3-5-2-2z" fill="#045A8F"/>
<path transform="translate(1932,371)" d="m0 0 10 1 7 4 4 7v15l-4 6-5 4-8 2-9-1-8-7-3-6-1-10 6-10 6-4zm1 9-6 5-1 7 3 6 5 3 6-2 4-5-1-9-4-4z" fill="#03598E"/>
<path transform="translate(1977,372)" d="m0 0h14l6 3 1 7-2 2-5-1-1-1h-9l-1 2 12 2 7 5 1 8-3 7-5 3-11 1-10-3-3-3v-8h3l8 3h8l1-4-11-1-6-4-3-4 1-7 5-6z" fill="#055B8F"/>
<path transform="translate(1674,364)" d="m0 0 5 1 7 7 5-3 4-2 1 4-4 8-1 22 3 4 2 7-2 2-6-4-4 1-7 6-3 1 2-5 4-5v-4l-16-9-9-3 3-3 16-8 6-4-1-5-5-6zm7 21-7 5 5 5 5 1v-11z" fill="#045A8F"/>
<path transform="translate(1462,373)" d="m0 0h13l6 4 4 6 1 9-3 3-22-1 3 4 8 1 11-3-1 7-5 3-13 1-7-3-5-6-2-5 1-9 6-8zm5 6-5 3-2 3v3h14l3-1-2-6-4-2z" fill="#045A8F"/>
<path transform="translate(1623,372)" d="m0 0h7l-1 6-11 28-6 11-3 2h-11v-4l6-4h2l-1-9-11-28v-1h10l5 13 2 6 2 1 3-9 5-11z" fill="#045A8E"/>
<path transform="translate(1301,373)" d="m0 0h10l8 4 4 7 1 7-2 7-4 5-5 3-5 1h-7l-6-3-6-7-1-3v-8l4-8 6-4zm3 7-5 3-2 3v7l4 5 2 1h6l5-5v-7l-3-5-4-2z" fill="#045A8F"/>
<path transform="translate(1395,373)" d="m0 0h12l7 6 3 8v7l-4 1-18-1 3 4 7 1 9-1-1 5-4 3h-15l-7-6-3-8 2-9 4-6zm4 6-4 3-1 5 1 1h10l3-3-3-5z" fill="#055B8F"/>
<path transform="translate(1861,362)" d="m0 0h7l2 2v7l6 2 1 1v5l-5 4-1 3v8l3 5 4 6-1 3-10 2-5-3-2-3-1-5-1-16-4-4v-5l4-3z" fill="#055B8F"/>
<path transform="translate(1831,359)" d="m0 0h5l2 5v43l-1 1h-9l-2-2v-46z" fill="#055B8F"/>
<path transform="translate(1956,359)" d="m0 0 10 1 1 1-1 47-1 1-8-1-1-1-1-18z" fill="#055B8F"/>
<path transform="translate(1427,372)" d="m0 0 7 1 4 1h8v5l-2 2-9 2v23l-7 1-2-1-1-11v-21z" fill="#116394"/>
<path transform="translate(1842,372)" d="m0 0h9l1 1v31l-1 4h-8l-1-1z" fill="#045A8E"/>
<path transform="translate(1843,359)" d="m0 0h7l1 1v7l-1 1-7-1-1-5z" fill="#02598E"/>
</svg>
