<?xml version="1.0" encoding="UTF-8"?>
<svg version="1.1" viewBox="0 0 2048 2048" width="1280" height="1280" xmlns="http://www.w3.org/2000/svg">
<path transform="translate(1244,284)" d="m0 0 15 1 11 3 12 6 10 8 8 9 8 14 3 10 1 7v966l-2 23-5 24-6 20-9 21-10 19-12 18-9 11-9 10-1 2h-2l-2 4-12 11-17 13-14 9-16 9-21 9-21 7-24 5-24 3h-26l-24-3-15-3-21-6-20-8-16-8-17-10-17-13-10-9-8-7-14-15-10-13-11-17-8-14-9-21-7-21-4-18-3-20-1-13v-18l2-22 4-22 7-24 9-21 8-16 13-20 11-14 11-12 11-11 11-9 15-11 20-12 19-9 22-8 20-5 20-3 13-1h26l25 3 20 4 3 1-1-362-51 19-47 18-95 36-153 58-74 28-1 622-2 19-5 25-5 16-6 16-8 17-12 20-13 17-18 20-12 11-17 13-21 13-25 12-21 7-21 5-30 4h-26l-24-3-15-3-21-6-20-8-16-8-17-10-12-9-10-8-13-12-7-7-7-8-13-17-11-18-8-15-9-23-6-20-4-21-2-21v-23l3-27 5-23 8-23 8-18 10-18 10-14 9-12 11-12 13-13 11-9 15-11 19-11 21-10 24-8 22-5 14-2 14-1h25l25 3 23 5v-673l3-14 8-16 11-12 9-7 19-9 39-15 76-30 51-20 30-12 127-50 109-43 99-39 89-35 8-2zm-100 310-185 70-87 33-140 53-9 4v55l6-1 34-13 100-38 129-49 127-48 26-10v-56z"/>
<path transform="translate(1636,740)" d="m0 0h13l9 4 8 7 12 11 80 80 6 5 4 4v2l4 2 78 78 3 2v2l4 2 28 28 7 8 12 14 15 20 20 30 11 18 10 18 12 23 14 29 13 32 10 28 11 35 11 45 5 26 6 43v23l-3 10-7 12-8 8-14 7-14 3h-75l-13-3-9-5-10-9-7-10-7-21-10-36-12-37-13-34-12-27-10-20-10-17-8-12-11-14-18-20-9-9-8-7-14-12-16-13-19-14-22-15-11-7v707l-2 22-5 24-6 20-9 21-9 17-9 14-9 12-12 14-16 16-11 9-14 10-15 9-15 8-20 8-15 5-29 6-16 2h-35l-27-4-26-7-21-8-20-10-19-12-14-11-13-12-14-14-11-14-9-13-9-15-10-21-6-16-6-22-4-25-1-12v-22l2-22 5-25 6-20 8-19 8-16 10-16 12-16 18-20 13-12 16-12 16-10 23-12 24-9 25-6 21-3 26-1 26 2 27 5 4 1v-687l3-17 6-15 7-12 11-13 12-10 10-6 24-10 28-11 26-10z"/>
<path transform="translate(1244,345)" d="m0 0h7l1 24v931l-2 24-5 22-8 20-10 19-9 13-9 11-19 19-17 12-18 10-20 8-19 5-14 2h-36l-20-3-19-6-17-7-16-9-14-10-12-11-15-15-12-17-7-12-9-21-6-21-3-21v-29l2-16 5-20 6-16 8-16 8-13 10-13 11-12 11-10 17-12 18-10 20-8 19-5 13-2h40l17 3 20 6 27 11 10 1 11-3 9-7 5-9 1-3 1-14v-566l-3-12-6-8-9-6-8-2h-7l-14 4-113 43-195 74-103 39-40 15-28 11-9 7-5 8-1 3-1 74v686l-1 17-4 21-7 21-9 19-10 16-8 10-9 10-13 13-17 12-17 10-20 8-17 5-19 3-21 1-16-1-25-5-18-6-19-9-14-9-14-11-13-12-9-10-9-13-9-15-8-18-5-15-4-19-2-23 1-20 3-19 6-20 7-17 10-18 12-16 11-12 12-11 15-11 18-10 19-8 17-5 17-3h41l25 5 20 7 16 7 7 2h7l11-4 6-4 6-9 2-5 1-14v-705l4-4 73-29 99-39 28-11 79-31 30-12 36-14 53-21 127-50 46-18 30-12z" fill="#BFF39D"/>
<path transform="translate(1632,805)" d="m0 0 4 1 26 26 8 7 86 86 7 6v2l4 2 80 80 9 11 15 20 16 24 12 20 10 18 13 25 13 29 13 34 12 37 9 35 7 34 5 31v5l-1 1h-44l-3-6-8-28-11-35-11-31-12-29-11-24-12-23-11-18-11-16-11-14-11-12-7-8-13-13-8-7-11-10-11-9-16-13-18-13-14-10-15-10-19-12-22-13-17-9-9-2-10 1-10 5-7 8-4 11-1 761-2 20-5 21-7 18-8 16-7 11-9 12-7 9h-2l-2 4-13 12-14 10-17 10-18 8-20 6-15 3-8 1h-29l-20-3-18-5-19-8-14-7-12-8-10-8-10-9-8-8-9-11-7-10-9-16-7-15-6-19-4-23-1-22 2-21 4-18 5-16 6-15 11-19 11-15 12-13 10-9 15-11 16-9 17-8 19-6 23-4h34l19 3 15 4 16 6 17 7 3 1h11l10-4 7-6 5-8 2-16 1-67v-412l-1-134v-107l2-9 4-8 7-7 12-6 41-16z" fill="#C594E5"/>
<path transform="translate(239)" d="m0 0h25l17 6 12 7 11 10 7 10 12 23 19 39 9 18 9 2 74 11 16 4 12 6 10 8 7 7 9 14 5 15 1 5v20l-3 12-4 9-6 10-9 10-1 2h-2l-2 4-8 7-26 26h-2l-1 3-8 7-8 8 1 11 12 71 1 9v11l-2 12-5 13-7 11-10 11-14 9-18 6-9 1h-11l-15-3-23-11-23-12-19-10-18-10-6 1-29 15-22 12-26 13-13 4-8 1h-13l-14-3-10-4-12-8-12-12-8-14-4-11-2-12 1-18 14-81-7-8-40-40-8-7-7-7-9-12-7-14-3-14v-14l3-15 5-12 9-13 9-9 14-8 11-4 15-3 70-10 7-2 12-23 11-23 15-30 7-11 8-9 13-9 14-6z"/>
<path transform="translate(249,60)" d="m0 0 7 1 4 5 10 19 11 23 25 50 6 7 10 5 15 3 63 9 26 4 6 3 2 3-1 7-7 8-15 15h-2v2l-8 7-28 28-8 7-7 7-5 8-2 7v11l14 82 2 10v12l-6 5-9-2-23-12-32-17-18-10-17-8-8-2-9 1-15 6-22 12-33 17-19 10-7 4-6 1-5-3-2-2v-9l14-82 2-12v-14l-5-10-9-10-15-15-2-1v-2l-4-2-31-31-8-7-9-11 1-6 4-4 15-3 84-12 11-3 7-4 6-7 12-23 26-53 10-19z" fill="#FCCA84"/>
<path transform="translate(1244,345)" d="m0 0h7l1 24v931l-2 24-5 22-8 20-10 19-9 13-5 6-3 1-4 5-2-1v-1h-2v2h-2v2h-2v2h-2v2h-2l1-6 7-10 4-9 5-11 6-16 4-11 3-15 2-12 3-39v-36l1-139v-33l1-154v-167l-1-120v-59l-1-84v-106l1-32 3-1v-3l-2-1 5-2v-2z" fill="#A1E89C"/>
<path transform="translate(241,1784)" d="m0 0h13l10 4 6 5 6 10 2 8-1 10-3 7-6 8-20 20-8 7-21 21-8 7-14 14h-2l-1 3-8 7-15 15-8 7-16 16h-2v2l-8 7-21 21-8 7-14 14-8 7-17 17-8 7-9 8-10 5h-13l-12-6-5-5-5-8-2-6v-9l3-10 7-9 16-16 8-7 17-17 8-7 17-17 8-7 17-17 8-7 17-17h2l1-3 8-7 14-14h2v-2l8-7 17-17 8-7 19-19 8-7 10-10 9-5z"/>
<path transform="translate(1611 1e3)" d="m0 0h1v756l-2 20-5 21-7 18-8 16-7 11-9 12-7 9h-2l-2 4-13 12-5 4-7 1-5 3-4-1 1-4 9-7 5-5 3-1 2-4h2l2-4 6-10 1-2h2l2-5 2-4h2l1-5 7-15 2-6v-2h2l1-11 2-6 2-14 2-22v-54l1-28-1-69v-324l1-199 1-7-1-9 1-9v-9l1-11 4-6 4-12 2-1 5-10 3 2 1-1h2z" fill="#BA7FE0"/>
<path transform="translate(244,771)" d="m0 0h14l10 4 7 6 5 9 2 8v43h41l11 2 9 6 6 8 3 8v13l-5 10-6 7-10 5-6 1h-43v43l-3 11-7 9-7 5-6 2h-15l-8-3-8-7-6-12-1-8v-40h-45l-11-4-7-6-6-11-1-4v-9l3-10 7-9 8-5 7-2h45v-41l2-10 5-8 5-5 8-5z"/>
<path transform="translate(1530,373)" d="m0 0h10l11 4 7 6 5 8 2 7v46l30-1 17 1 10 4 7 6 6 12 1 11-3 10-6 8-8 6-7 2-35 1h-11l-1 45-4 11-7 8-10 5-4 1h-11l-10-4-7-6-5-8-2-7v-46l-23 1h-14l-11-1-12-6-7-9-3-7-1-9 3-11 6-9 11-7 13-2h37l1-46 3-8 7-9 8-5z"/>
<path transform="translate(662,727)" d="m0 0h1v758l-1 17-4 21-7 21-9 19-10 16-8 10-9 10-8 8-3-2 8-8 4-5h-2v2h-2v2h-2v2h-2v2l-3-1 2-5 6-9 4-12 4-7 6-14 7-22 4-26 2-35v-673l1-14v-33l1-16 4-3h14l1 1z" fill="#A1E99C"/>
<path transform="translate(396,1820)" d="m0 0h13l9 3 10 9 4 8 1 4v11l-3 8-6 8-5 6h-2l-2 4-8 7-18 18-8 7-15 15-8 7-16 16-8 7-15 15h-2v2l-8 7-10 9-9 4h-16l-10-5-8-9-4-11v-8l3-10 7-9 12-12 8-7 21-21 8-7 17-17 8-7 16-16 8-7 20-20 10-7z"/>
<path transform="translate(1748,927)" d="m0 0 5 1 4 4 3 2 5 5 7 6 6 7 3 2v2l4 2v2l4 2v2l4 2v2l4 2v2l4 2v2l4 2 6 5 3 4 4-1 29 29 9 11 15 20 16 24 12 20 10 18 13 25 13 29 13 34 12 37 9 35 7 34 5 31v5l-1 1h-44v-1l19-1 1-2h2l-3-10-1-13-2-14-3-13-2-11-1-7-2-5-2-11-4-16-3-9-4-15-3-9-2-10-2-3-1-6-3-7v-5h-2l-4-11-3-6v-3l-2-2-2-5-6-12-2-5-6-12-3-7-4-8-1-5h-2l-7-13-6-10-14-24-11-16-2-3-1-5-9-9-7-8-6-7v-3l-3-1-7-8-5-4-5-6-4-3v-2l-4-2v-2l-4-2v-2l-4-2-8-7v-2l-4-2v-2l-4-2v-2l-4-2v-2l-4-2v-2l-4-2-5-6z" fill="#BA7FE0"/>
<path transform="translate(1739,237)" d="m0 0 11 2 10 6 6 8 3 7v15l-5 10-5 6-9 5-4 1h-14l-8-3-9-8-5-10-1-4v-9l4-11 7-8 12-6z"/>
<path transform="translate(827,1761)" d="m0 0 12 2 9 6 6 7 4 11v10l-4 10-8 9-8 4-4 1h-14l-10-5-5-5-5-7-2-6v-14l5-10 7-7 10-5z"/>
<path transform="translate(1566,845)" d="m0 0h1l1 99 1 74v508l-2 43h-1v-476l-1-134v-107z" fill="#BA7FE0"/>
<path transform="translate(1668,847)" d="m0 0 5 1 2 4 4 2 23 23v2l4 2v2l4 2v2l4 2v2l4 2v2l4 2 4 5-5-1-1-3-4-2v-2l-4-2v-2l-4-2v-2l-4-2v-2l-4-2v-2l-4-2-28-28z" fill="#BA7FE0"/>
<path transform="translate(1822,992)" d="m0 0 4 2 21 21 9 11 14 19-1 2-7-9v-2h-2l-6-8-6-5v-2l-3-1-1-4-3-1-1-2-3-2-5-6-3-3 1-2h-2v-2h-2v-2h-2v-2h-2z" fill="#C391E4"/>
<path transform="translate(1248,345)" d="m0 0h3v68h-1l-2-26v-7l1-2 1-30-2-1z" fill="#C0F49D"/>
<path transform="translate(1426,1585)" d="m0 0h34v1l-19 1-13 2h-20v-1z" fill="#BA7FE0"/>
<path transform="translate(1637,815)" d="m0 0 4 2v2l4 1 5 5 1 3 4 2v2l4 2v2l3 1-3 2-6-5-6-7-6-5-4-5z" fill="#BA7FE0"/>
<path transform="translate(488,1647)" d="m0 0h15l1 1 8 1v1l-21 1-16-1v-1z" fill="#A1E99C"/>
<path transform="translate(624,1586)" d="m0 0v3l-9 10-8 8-3-2 11-11 5-3z" fill="#ADED9C"/>
<path transform="translate(1431,1918)" d="m0 0 10 1h17v2h-29l-8-1v-1z" fill="#BA7FE0"/>
<path transform="translate(1601,1804)" d="m0 0h1l-1 8-6 12-1-2 3-8z" fill="#C38FE4"/>
<path transform="translate(1810,980)" d="m0 0 4 2 3 3-1 3-4-2-4-5z" fill="#C38FE4"/>
<path transform="translate(1668,847)" d="m0 0 5 1 2 4 3 1v2l-4-1z" fill="#BB82E0"/>
</svg>
